<?xml version="1.0" encoding="utf-8"?>
<!-- Generator: Adobe Illustrator 25.3.1, SVG Export Plug-In . SVG Version: 6.00 Build 0)  -->
<svg version="1.1" id="Layer_1" xmlns="http://www.w3.org/2000/svg" xmlns:xlink="http://www.w3.org/1999/xlink" x="0px" y="0px"
	 viewBox="0 0 1590 305" style="enable-background:new 0 0 1590 305;" xml:space="preserve">
<style type="text/css">
	.st0{fill:#092534;}
</style>
<polygon class="st0" points="1591.8,308 1591.8,228.4 1581.9,228.4 1581.9,220 1573.6,220 1573.6,213.4 1566.9,213.4 1566.9,220 
	1558.6,220 1558.6,236.5 1553.7,236.5 1553.7,220 1537,220 1537,215.1 1532.1,215.1 1532.1,203.4 1525.4,203.4 1525.4,213.4 
	1520.4,213.4 1520.4,248.1 1513.9,248.1 1513.9,222.8 1510.5,219.1 1510.5,200 1504.7,193.5 1497.3,193.5 1497.3,206.8 1494,206.8 
	1494,215.1 1490.6,215.1 1490.6,205.1 1489.1,205.1 1489.1,165.3 1487.4,165.3 1487.4,143.8 1485.6,143.8 1485.6,110.7 
	1477.3,110.7 1477.3,52.6 1474.1,52.6 1474.1,110.7 1465.7,110.7 1465.7,56 1462.4,56 1462.4,115.7 1455.7,115.7 1455.7,147 
	1442.5,147 1442.5,150.4 1435.9,150.4 1435.9,112.3 1417.7,112.3 1417.7,102.3 1392.8,102.3 1392.8,112.3 1374.6,112.3 
	1374.6,213.4 1371.2,213.4 1371.2,195.3 1367.9,195.3 1367.9,170.3 1361.2,170.3 1361.2,168.5 1349.7,168.5 1349.7,170.3 
	1341.4,170.3 1341.4,166.4 1337.3,161.9 1331.4,161.9 1331.4,168.5 1324.9,168.5 1324.9,203.4 1319.9,203.4 1319.9,183.6 
	1315,183.6 1315,178.6 1305,178.6 1305,183.6 1296.5,183.6 1296.5,201.8 1288.9,201.8 1281.6,207.6 1281.6,225 1273.4,225 
	1273.4,145.4 1268.4,145.4 1268.4,142 1265.2,142 1265.2,137 1238.6,137 1238.6,142 1235.4,142 1235.4,145.4 1230.4,145.4 
	1230.4,221.6 1227,221.6 1227,168.5 1222,168.5 1222,188.5 1213.8,188.5 1213.8,175.4 1198.8,175.4 1198.8,148.8 1194.1,148.8 
	1191.3,147 1180.1,147 1178.1,148.8 1167.2,148.8 1167.2,210.1 1164,210.1 1164,193.5 1159,193.5 1159,186.9 1150.8,186.9 
	1150.8,193.5 1145.8,193.5 1145.8,228.4 1139.1,228.4 1139.1,233.3 1129.2,233.3 1129.2,213.4 1124.2,213.4 1124.2,208.4 
	1102.6,208.4 1102.6,213.4 1091.1,213.4 1091.1,208.4 1069.5,208.4 1069.5,211.8 1066.2,211.8 1066.2,205.1 1062.8,205.1 
	1062.8,198.5 1047.9,198.5 1047.9,201.8 1042.9,201.8 1042.9,198.5 1036.4,198.5 1036.4,193.5 1027.9,193.5 1027.9,201.8 
	1018,201.8 1018,195.4 1014.7,192.8 1014.7,187.8 1010.5,183.6 1001.5,183.6 1001.5,188.5 996.6,188.5 996.6,183.6 986.6,183.6 
	986.6,190.3 983.2,190.3 983.2,201.8 979.9,201.8 979.9,215.1 973.3,215.1 973.3,221.6 966.7,221.6 966.7,201.8 920.2,201.8 
	920.2,198.5 917,198.5 917,203.4 908.6,203.4 908.6,218.4 907,218.4 907,228.4 903.6,228.4 903.6,250 895.4,250 895.4,254.9 
	888.7,254.9 888.7,177 883.7,177 883.7,168.5 872.2,168.5 872.2,155.3 863.9,155.3 863.9,150.4 855.6,150.4 855.6,87.3 840.6,87.3 
	840.6,90.9 825.7,90.9 825.7,180.4 815.8,180.4 815.8,177 786,177 786,171.9 776,171.9 776,177 772.8,177 772.8,183.6 769.3,183.6 
	769.3,201.8 762.7,201.8 762.7,183.6 756,183.6 756,102.3 736.8,102.3 729.5,106.4 729.5,125.5 721.3,125.5 721.3,122.2 
	715.2,122.2 704.7,129.7 704.7,137 696.4,137 696.4,132.2 681.5,132.2 681.5,135.5 669.8,135.5 669.8,138.8 666.5,138.8 666.5,142 
	663.3,142 663.3,133.9 654.9,133.9 654.9,47.6 641.7,47.6 641.7,44.2 631.7,44.2 631.7,47.6 626.8,47.6 626.8,42.6 621.8,42.6 
	621.8,34.3 618.5,34.3 618.5,47.6 608.6,47.6 608.6,108.9 588.7,108.9 588.7,198.5 578.7,198.5 578.7,183.6 568.7,183.6 
	568.7,196.8 563.8,196.8 563.8,218.4 558.8,218.4 558.8,259.9 555.4,259.9 555.4,180.4 530.5,180.4 530.5,186.9 525.6,186.9 
	525.6,195.3 520.6,195.3 520.6,243.3 515.6,243.3 515.6,231.8 512.5,229 509.9,226.6 504.2,226.6 504.2,253.1 500.7,253.1 
	500.7,245 495.8,245 495.8,250 477.5,250 477.5,228.4 474.2,228.4 474.2,216.6 465.9,216.6 465.9,208.4 464.3,208.4 464.3,203.4 
	460.9,203.4 460.9,206.8 455.9,206.8 455.9,218.4 442.7,218.4 442.7,180.4 436,180.4 436,177 426.1,177 426.1,180.4 416.2,180.4 
	416.2,230 409.6,230 409.6,213.4 404.7,213.4 404.7,203.4 397.9,203.4 397.9,169.5 393.7,161.9 379.7,161.9 379.7,203.4 
	366.4,203.4 366.4,238.3 363.1,238.3 363.1,254.9 358.2,254.9 358.2,151 349,145.4 336.6,145.4 336.6,177 331.6,177 331.6,221.6 
	326.6,221.6 326.6,218.4 318.4,218.4 318.4,221.6 311.6,221.6 311.6,215.1 301.7,215.1 301.7,191.9 290.2,191.9 290.2,140.4 
	281.8,140.4 281.8,105.8 278.5,105.8 277.3,70.7 276.1,105.8 271.9,105.8 271.9,140.4 258.7,140.4 258.7,191.9 233.8,191.9 
	233.8,235 227.2,235 227.2,230 223.8,230 223.8,235 217.1,235 217.1,206.8 213.9,206.8 213.9,175.4 208.9,175.4 208.9,168.5 
	202.2,168.5 202.2,175.4 194,175.4 194,206.8 189,206.8 189,219.1 182.5,210.4 175.8,219.1 175.8,241.5 160.9,241.5 160.9,230 
	142.6,230 142.6,251.4 136.1,251.4 136.1,240 129.3,240 129.3,235 122.6,235 122.6,240 116.1,240 116.1,226.8 109.4,212.6 
	109.4,186.9 61.4,186.9 61.4,246.4 54.8,246.4 54.8,241.5 49.8,241.5 49.8,246.4 43,246.4 43,238.3 31.5,238.3 31.5,266.5 
	28.1,266.5 28.1,248.1 24.8,248.1 24.8,213.9 15.7,208.4 3.3,208.4 3.3,253.1 0,253.1 0,308 "/>
</svg>
